<svg  xmlns="http://www.w3.org/2000/svg">
 <g>
  <title>Layer 1</title>
  <path stroke="#FFAFCC" fill="#ff0800" d="m707.02217,267.53852c21.19995,0 26.45062,14.38739 26.45062,32.77276l0,42.5225c0,1.12476 -0.77294,1.9137 -1.85506,1.9137l-13.30527,0c-1.07679,0 -2.00965,-0.78893 -2.00965,-1.9137l0,-40.75805c0,-11.02909 -1.39663,-18.54529 -13.30527,-18.54529c-14.99508,0 -14.99508,14.37673 -14.99508,26.70116l0,32.60218c0,1.12476 -0.93286,1.9137 -2.00965,1.9137l-13.30527,0c-1.08745,0 -2.00965,-0.78893 -2.00965,-1.9137l0,-71.30261c0,-0.7996 0.9222,-1.75911 2.00965,-1.75911l13.30527,0c1.07679,0 2.00965,0.95951 2.00965,1.75911l19.01971,-3.99265zm-45.78485,37.40508c0,22.54327 -17.01539,39.80387 -38.82836,39.80387c-21.65305,0 -38.82836,-17.2606 -38.82836,-39.80387c0,-22.38335 17.18064,-39.8092 38.82836,-39.8092c21.80764,0 38.82836,17.42585 38.82836,39.8092m-60.33215,0c0,12.46303 9.58982,23.01769 21.49846,23.01769c12.22315,0 21.81297,-10.55466 21.81297,-23.01769c0,-12.47369 -9.58982,-22.8631 -21.81297,-22.8631c-11.90864,0 -21.49846,10.39474 -21.49846,22.8631m-59.72446,-18.86513l-12.37241,0c-1.08212,0 -2.00965,-0.47976 -2.00965,-1.60452l0,-12.94279c0,-0.7996 0.92753,-1.75911 2.00965,-1.75911l2.77726,0c9.59515,0 9.59515,-7.20169 9.59515,-11.03442l0,-8.15054c0,-1.11943 0.93286,-1.75911 2.02031,-1.75911l13.28928,0c1.08745,0 1.86572,0.63968 1.86572,1.75911l0,19.19029l16.24245,0c1.08212,0 2.00965,0.95951 2.00965,1.75911l0,12.94279c0,1.12476 -0.92753,1.60452 -2.00965,1.60452l-16.24245,0l0,23.97721c0,6.07693 -0.45843,16.1465 6.49805,17.75102c3.87004,0.47976 6.1942,-0.47976 8.51303,-1.4446c0,0 0.77827,-0.31984 1.23138,-0.31984c1.08212,0 2.00965,0.79426 2.00965,1.75911l0,13.58779c0,0.48509 -0.61302,1.4446 -1.38597,1.59919l0.14926,0c-3.24103,1.4446 -7.5855,1.75378 -10.99177,1.75378c-18.56128,0 -23.2096,-13.42255 -23.2096,-29.88355l0.01066,-28.78544zm-71.60645,24.93672c0.77827,10.55466 8.04393,17.90561 18.7212,17.90561c9.28597,0 13.4492,-5.11208 18.25743,-13.10804c0.61835,-0.7996 1.3913,-1.1141 2.47342,-0.47976l11.29029,6.55135c0.77827,0.64501 1.40196,1.4446 0.93286,2.40412l0,-0.16525c-6.80722,13.1187 -18.87579,20.62424 -33.10859,20.62424c-22.11148,0 -35.73126,-17.2606 -35.73126,-39.32411c0,-22.8631 12.06856,-40.28363 35.42742,-40.28363s34.49456,19.65939 34.49456,41.87216l0,2.24953c0,1.1141 -0.92753,1.74845 -2.00965,1.74845l-50.74767,0l0,0.00533zm35.12357,-15.02174c-2.16957,-8.15054 -8.05459,-15.18699 -16.86614,-15.18699c-8.19852,0 -14.84583,7.35095 -17.01539,15.18699l33.88153,0zm-63.38661,46.83498a1.90304,1.90304 0 0 1 -1.86039,1.9137l-13.30527,0c-1.07679,0 -2.01498,-0.78893 -2.01498,-1.9137l0,-121.97565c0,-0.7996 0.93819,-1.75911 2.01498,-1.75911l13.30527,0c0.93286,0 1.86039,0.95951 1.86039,1.75911l0,121.97565zm-101.41005,-124.37976c0,-0.79426 0.92753,-1.75378 2.00965,-1.75378l13.45986,0c1.08212,0 1.99899,0.95951 1.99899,1.75378l0,56.92055c5.73577,-6.39676 13.15601,-10.23482 22.12215,-10.23482c21.19995,0 34.33997,18.54529 34.33997,39.32944c0,21.42916 -12.37774,40.29429 -34.96898,40.29429c-8.19319,0 -16.09319,-4.16323 -21.65838,-10.08024l0,5.75709c0,1.1141 -0.92753,1.9137 -2.00432,1.9137l-13.30527,0c-1.08212,0 -2.00965,-0.7996 -2.00965,-1.9137l0.01599,-121.98631zm56.92588,86.34034c0,-12.7882 -7.43091,-23.65737 -20.57626,-23.65737c-12.36708,0 -19.79266,11.50885 -19.79266,23.65737c0,12.47369 7.11107,24.1318 19.79266,24.1318c13.30527,0.00533 20.57626,-11.02376 20.57626,-24.1318m-146.49125,10.54933l-12.37774,28.1351c-0.30918,0.47976 -1.3913,1.27935 -1.85506,1.27935l-15.16566,0c-1.54055,0 -2.3135,-1.27935 -1.85506,-2.71863l53.9887,-121.66114c0.92753,-1.4446 2.93718,-1.4446 3.71012,0c17.48449,39.48936 36.50954,82.18244 53.9887,121.6718c0.46377,1.4446 -0.31451,2.72396 -1.85506,2.72396l-15.17632,0c-0.61835,0 -1.54588,-0.7996 -1.85506,-1.27935c-3.87004,-9.12072 -8.35311,-18.86513 -12.37241,-28.14044l-49.17513,-0.01066zm24.59023,-57.39497l-17.47383,40.43822l34.95832,0l-17.48449,-40.43822z" id="svg_1"/>
  <line stroke="null" fill="none" id="svg_3" y2="311.55015" x2="378.11415" y1="286.62614" x1="488.14321"/>
 </g>

</svg>